<svg width="100" height="100" viewBox="0 0 100 100" fill="none" xmlns="http://www.w3.org/2000/svg">
<path d="M42.5544 10.8131L47.3424 12.6993C49.0503 13.3717 50.9497 13.3717 52.6576 12.6993L57.4456 10.8131C60.2643 9.70449 63.4032 9.73277 66.2015 10.8919C68.9997 12.0511 71.2391 14.2508 72.4481 17.0278L74.4988 21.7433C75.231 23.4262 76.5738 24.769 78.2567 25.5012L82.9722 27.5519C85.7504 28.7609 87.9509 31.0011 89.1102 33.8005C90.2695 36.5999 90.297 39.7399 89.1869 42.5592L87.3007 47.3472C86.6296 49.0537 86.6296 50.9511 87.3007 52.6576L89.1869 57.4456C90.2955 60.2643 90.2672 63.4032 89.1081 66.2015C87.9489 68.9997 85.7492 71.2391 82.9722 72.4481L78.2567 74.4988C76.5735 75.2306 75.2306 76.5735 74.4988 78.2567L72.4481 82.9722C71.2391 85.7504 68.9989 87.9509 66.1995 89.1102C63.4001 90.2695 60.2601 90.297 57.4408 89.1869L52.6528 87.3007C50.9463 86.6296 49.0489 86.6296 47.3424 87.3007L42.5544 89.1869C39.7357 90.2955 36.5968 90.2672 33.7985 89.1081C31.0003 87.9489 28.7609 85.7492 27.5519 82.9722L25.5012 78.2567C24.769 76.5738 23.4262 75.231 21.7433 74.4988L17.0278 72.4481C14.2496 71.2391 12.0491 68.9989 10.8898 66.1995C9.73054 63.4001 9.70303 60.2601 10.8131 57.4408L12.6993 52.6528C13.3704 50.9463 13.3704 49.0489 12.6993 47.3424L10.8131 42.5544C9.70449 39.7357 9.73277 36.5968 10.8919 33.7985C12.0511 31.0003 14.2508 28.7609 17.0278 27.5519L21.7433 25.5012C23.4262 24.769 24.769 23.4262 25.5012 21.7433L27.5519 17.0278C28.7609 14.2496 31.0011 12.0491 33.8005 10.8898C36.5999 9.73054 39.7399 9.70303 42.5592 10.8131H42.5544ZM59.2158 15.3109L54.4277 17.1971C51.5821 18.317 48.4179 18.317 45.5723 17.1971L40.7842 15.3109C39.1311 14.6611 37.2903 14.6781 35.6494 15.3583C34.0085 16.0384 32.6955 17.3288 31.9868 18.9576L29.9362 23.6731C28.7159 26.4778 26.4778 28.7159 23.6731 29.9362L18.9576 31.9868C17.3285 32.6964 16.0384 34.0105 15.359 35.6525C14.6797 37.2944 14.6642 39.1359 15.3158 40.7891L17.1971 45.5723C18.317 48.4179 18.317 51.5821 17.1971 54.4277L15.3109 59.2158C13.9616 62.6496 15.5721 66.5381 18.9576 68.0132L23.6731 70.0638C26.4778 71.2841 28.7159 73.5222 29.9362 76.3269L31.9868 81.0424C32.6964 82.6715 34.0105 83.9616 35.6525 84.641C37.2944 85.3203 39.1359 85.3358 40.7891 84.6842L45.5723 82.798C48.4179 81.6782 51.5821 81.6782 54.4277 82.798L59.2158 84.6842C62.6496 86.0384 66.5381 84.4279 68.0132 81.0424L70.0638 76.3269C71.2841 73.5222 73.5222 71.2841 76.3269 70.0638L81.0424 68.0132C82.6715 67.3036 83.9616 65.9895 84.641 64.3475C85.3203 62.7056 85.3358 60.8641 84.6842 59.2109L82.798 54.4277C81.6782 51.5821 81.6782 48.4179 82.798 45.5723L84.6842 40.7842C85.3343 39.1317 85.3181 37.2914 84.6388 35.6505C83.9596 34.0097 82.6704 32.6964 81.0424 31.9868L76.3269 29.9362C73.5222 28.7159 71.2841 26.4778 70.0638 23.6731L68.0132 18.9576C67.3036 17.3285 65.9895 16.0384 64.3475 15.359C62.7056 14.6797 60.8641 14.6642 59.2109 15.3158L59.2158 15.3109Z" fill="#003A70"/>
<path d="M45.0596 58.5678L62.7028 38.7192C63.1054 38.2737 63.6594 37.9939 64.2569 37.9343C64.8544 37.8747 65.4527 38.0395 65.9353 38.3967C66.418 38.7539 66.7505 39.2779 66.8682 39.8667C66.9859 40.4555 66.8803 41.0671 66.5719 41.5823L66.3156 41.9354L46.97 63.6992C46.5796 64.1381 46.0428 64.4199 45.4599 64.492C44.8769 64.5641 44.2877 64.4215 43.8022 64.0909L43.4539 63.8007L33.7811 54.1279C33.3527 53.7014 33.0996 53.1299 33.0716 52.526C33.0437 51.9221 33.2429 51.3297 33.6301 50.8654C34.0173 50.4011 34.5644 50.0987 35.1635 50.0178C35.7626 49.9368 36.3702 50.0832 36.8668 50.4281L37.2005 50.7086L45.0596 58.5678Z" fill="#FFC72C"/>
</svg>
