<svg width="100" height="100" viewBox="0 0 100 100" fill="none" xmlns="http://www.w3.org/2000/svg">
<path d="M15 22.5C15 20.5109 15.7902 18.6032 17.1967 17.1967C18.6032 15.7902 20.5109 15 22.5 15H77.5C79.4891 15 81.3968 15.7902 82.8033 17.1967C84.2098 18.6032 85 20.5109 85 22.5V57.5C85 59.4891 84.2098 61.3968 82.8033 62.8033C81.3968 64.2098 79.4891 65 77.5 65H50V60H77.5C78.163 60 78.7989 59.7366 79.2678 59.2678C79.7366 58.7989 80 58.163 80 57.5V22.5C80 21.837 79.7366 21.2011 79.2678 20.7322C78.7989 20.2634 78.163 20 77.5 20H22.5C21.837 20 21.2011 20.2634 20.7322 20.7322C20.2634 21.2011 20 21.837 20 22.5V30H15V22.5ZM50 75H87.5C88.163 75 88.7989 74.7366 89.2678 74.2678C89.7366 73.7989 90 73.163 90 72.5C90 71.8369 89.7366 71.2011 89.2678 70.7322C88.7989 70.2634 88.163 70 87.5 70H50V75Z" fill="#003A70"/>
<path d="M25 75C24.337 75 23.7011 75.2634 23.2322 75.7322C22.7634 76.2011 22.5 76.837 22.5 77.5C22.5 78.163 22.7634 78.7989 23.2322 79.2678C23.7011 79.7366 24.337 80 25 80H30C30.663 80 31.2989 79.7366 31.7678 79.2678C32.2366 78.7989 32.5 78.163 32.5 77.5C32.5 76.837 32.2366 76.2011 31.7678 75.7322C31.2989 75.2634 30.663 75 30 75H25ZM10 42.5C10 40.5109 10.7902 38.6032 12.1967 37.1967C13.6032 35.7902 15.5109 35 17.5 35H37.5C39.4891 35 41.3968 35.7902 42.8033 37.1967C44.2098 38.6032 45 40.5109 45 42.5V82.5C45 84.4891 44.2098 86.3968 42.8033 87.8033C41.3968 89.2098 39.4891 90 37.5 90H17.5C15.5109 90 13.6032 89.2098 12.1967 87.8033C10.7902 86.3968 10 84.4891 10 82.5V42.5ZM17.5 40C16.837 40 16.2011 40.2634 15.7322 40.7322C15.2634 41.2011 15 41.837 15 42.5V82.5C15 83.163 15.2634 83.7989 15.7322 84.2678C16.2011 84.7366 16.837 85 17.5 85H37.5C38.163 85 38.7989 84.7366 39.2678 84.2678C39.7366 83.7989 40 83.163 40 82.5V42.5C40 41.837 39.7366 41.2011 39.2678 40.7322C38.7989 40.2634 38.163 40 37.5 40H17.5Z" fill="#FFC72C"/>
</svg>
