<svg width="100" height="100" viewBox="0 0 100 100" fill="none" xmlns="http://www.w3.org/2000/svg">
<path d="M84.375 16.4062H15.625C14.1746 16.4063 12.7836 16.9824 11.758 18.008C10.7324 19.0336 10.1563 20.4246 10.1562 21.875V78.125C10.1562 79.5754 10.7324 80.9664 11.758 81.992C12.7836 83.0176 14.1746 83.5938 15.625 83.5938H20.8594C21.3003 83.5932 21.7321 83.4683 22.1053 83.2334C22.4784 82.9984 22.7777 82.663 22.9688 82.2656C24.5506 78.921 27.0498 76.0944 30.1756 74.115C33.3014 72.1355 36.9252 71.0846 40.625 71.0846C44.3248 71.0846 47.9486 72.1355 51.0744 74.115C54.2002 76.0944 56.6994 78.921 58.2812 82.2656C58.4723 82.663 58.7716 82.9984 59.1447 83.2334C59.5179 83.4683 59.9497 83.5932 60.3906 83.5938H84.375C85.8254 83.5938 87.2164 83.0176 88.242 81.992C89.2676 80.9664 89.8438 79.5754 89.8438 78.125V21.875C89.8438 20.4246 89.2676 19.0336 88.242 18.008C87.2164 16.9824 85.8254 16.4063 84.375 16.4062ZM30.4688 56.25C30.4688 54.2413 31.0644 52.2777 32.1804 50.6075C33.2964 48.9373 34.8826 47.6356 36.7384 46.8668C38.5942 46.0981 40.6363 45.897 42.6064 46.2889C44.5765 46.6808 46.3862 47.6481 47.8066 49.0684C49.2269 50.4888 50.1942 52.2985 50.5861 54.2686C50.978 56.2387 50.7769 58.2808 50.0082 60.1366C49.2395 61.9924 47.9377 63.5786 46.2675 64.6946C44.5973 65.8106 42.6337 66.4062 40.625 66.4062C37.9346 66.396 35.3573 65.3226 33.4548 63.4202C31.5524 61.5177 30.479 58.9404 30.4688 56.25ZM85.1562 78.125C85.1562 78.3322 85.0739 78.5309 84.9274 78.6774C84.7809 78.8239 84.5822 78.9062 84.375 78.9062H61.8359C59.1014 74.0002 54.7541 70.1911 49.5312 68.125C52.0236 66.2557 53.8646 63.6497 54.7936 60.6759C55.7225 57.7022 55.6922 54.5116 54.707 51.556C53.7218 48.6004 51.8317 46.0298 49.3043 44.2081C46.7769 42.3865 43.7404 41.4062 40.625 41.4062C37.5096 41.4062 34.4731 42.3865 31.9457 44.2081C29.4183 46.0298 27.5282 48.6004 26.543 51.556C25.5578 54.5116 25.5275 57.7022 26.4564 60.6759C27.3854 63.6497 29.2264 66.2557 31.7187 68.125C26.4959 70.1911 22.1486 74.0002 19.4141 78.9062H15.625C15.4209 78.8967 15.2276 78.8114 15.0831 78.6669C14.9386 78.5224 14.8533 78.3291 14.8438 78.125V21.875C14.8438 21.6678 14.9261 21.4691 15.0726 21.3226C15.2191 21.1761 15.4178 21.0938 15.625 21.0938H84.375C84.5822 21.0938 84.7809 21.1761 84.9274 21.3226C85.0739 21.4691 85.1562 21.6678 85.1562 21.875V78.125Z" fill="#003A70"/>
<path d="M77.3438 68.75V31.25C77.3438 30.6284 77.0968 30.0323 76.6573 29.5927C76.2177 29.1532 75.6216 28.9062 75 28.9062H25C24.3784 28.9062 23.7823 29.1532 23.3427 29.5927C22.9032 30.0323 22.6562 30.6284 22.6562 31.25V37.5C22.6562 38.1216 22.9032 38.7177 23.3427 39.1573C23.7823 39.5968 24.3784 39.8438 25 39.8438C25.6216 39.8438 26.2177 39.5968 26.6573 39.1573C27.0968 38.7177 27.3438 38.1216 27.3438 37.5V33.5938H72.6562V66.4062H68.75C68.1284 66.4062 67.5323 66.6532 67.0927 67.0927C66.6532 67.5323 66.4062 68.1284 66.4062 68.75C66.4062 69.3716 66.6532 69.9677 67.0927 70.4073C67.5323 70.8468 68.1284 71.0938 68.75 71.0938H75C75.6216 71.0938 76.2177 70.8468 76.6573 70.4073C77.0968 69.9677 77.3438 69.3716 77.3438 68.75Z" fill="#FFC72C"/>
</svg>
