<svg width="100" height="100" viewBox="0 0 100 100" fill="none" xmlns="http://www.w3.org/2000/svg">
<path d="M91.7369 76.9666L72.6709 44.8666C72.2626 44.1681 71.6785 43.5888 70.9768 43.1861C70.2751 42.7835 69.4801 42.5716 68.6711 42.5716C67.862 42.5716 67.0671 42.7835 66.3653 43.1861C65.6636 43.5888 65.0795 44.1681 64.6712 44.8666L55.3715 60.4999L40.7054 35.5666C40.2882 34.8692 39.6973 34.2919 38.9904 33.8911C38.2836 33.4902 37.4848 33.2795 36.6722 33.2795C35.8596 33.2795 35.0608 33.4902 34.354 33.8911C33.6471 34.2919 33.0562 34.8692 32.639 35.5666L8.27321 76.9999C8.09435 77.3028 8 77.6482 8 77.9999C8 78.3517 8.09435 78.697 8.27321 78.9999C8.45138 79.3019 8.70461 79.5527 9.00831 79.7279C9.31202 79.9032 9.65587 79.9969 10.0065 79.9999H90.0036C90.3558 79.9935 90.7002 79.8958 91.0032 79.7163C91.3062 79.5367 91.5574 79.2816 91.7321 78.9758C91.9068 78.67 91.9991 78.324 92 77.9718C92.0008 77.6196 91.9102 77.2732 91.7369 76.9666ZM36.1056 37.5999C36.1581 37.4946 36.239 37.4061 36.3391 37.3442C36.4392 37.2822 36.5545 37.2495 36.6722 37.2495C36.7899 37.2495 36.9052 37.2822 37.0053 37.3442C37.1054 37.4061 37.1863 37.4946 37.2388 37.5999L45.7385 51.9999H27.6059L36.1056 37.5999ZM13.5064 75.9999L25.2726 55.9999H48.0718L53.6383 65.4666L59.8381 75.9999H13.5064ZM64.4712 75.9999L57.7048 64.4666L68.1044 46.8999C68.157 46.7946 68.2378 46.7061 68.3379 46.6442C68.438 46.5823 68.5534 46.5495 68.6711 46.5495C68.7888 46.5495 68.9041 46.5823 69.0042 46.6442C69.1043 46.7061 69.1852 46.7946 69.2377 46.8999L86.5038 75.9999H64.4712Z" fill="#003A70"/>
<path d="M62.0047 37.3333C63.7187 37.3333 65.3942 36.825 66.8194 35.8727C68.2446 34.9204 69.3554 33.5669 70.0113 31.9833C70.6673 30.3996 70.8389 28.6571 70.5045 26.9759C70.1701 25.2947 69.3447 23.7505 68.1327 22.5384C66.9207 21.3264 65.3765 20.5009 63.6954 20.1665C62.0143 19.8321 60.2717 20.0038 58.6882 20.6597C57.1046 21.3157 55.7511 22.4265 54.7988 23.8517C53.8466 25.277 53.3383 26.9526 53.3383 28.6667C53.3471 30.9625 54.2629 33.1618 55.8863 34.7852C57.5097 36.4086 59.7089 37.3246 62.0047 37.3333ZM62.0047 24C62.9276 24 63.8298 24.2737 64.5972 24.7865C65.3646 25.2993 65.9627 26.0281 66.3159 26.8808C66.6691 27.7335 66.7615 28.6718 66.5815 29.5771C66.4014 30.4823 65.957 31.3139 65.3044 31.9665C64.6517 32.6191 63.8202 33.0636 62.915 33.2437C62.0098 33.4237 61.0715 33.3313 60.2189 32.9781C59.3662 32.6249 58.6373 32.0268 58.1246 31.2593C57.6118 30.4919 57.3381 29.5896 57.3381 28.6667C57.3381 27.429 57.8298 26.242 58.7049 25.3668C59.5801 24.4917 60.767 24 62.0047 24Z" fill="#FFC72C"/>
</svg>
