<svg width="44" height="49" viewBox="0 0 44 49" fill="none" xmlns="http://www.w3.org/2000/svg">
<path d="M27.2189 24.0009C27.2189 22.9625 26.911 21.9475 26.3341 21.0841C25.7572 20.2207 24.9372 19.5478 23.9779 19.1504C23.0185 18.753 21.9629 18.649 20.9444 18.8516C19.926 19.0542 18.9905 19.5542 18.2563 20.2885C17.522 21.0227 17.022 21.9582 16.8194 22.9767C16.6168 23.9951 16.7208 25.0508 17.1182 26.0101C17.5155 26.9695 18.1885 27.7894 19.0519 28.3663C19.9152 28.9432 20.9303 29.2511 21.9687 29.2511C23.3612 29.2511 24.6966 28.698 25.6812 27.7134C26.6658 26.7288 27.2189 25.3934 27.2189 24.0009ZM21.9687 27.7511C21.227 27.7511 20.502 27.5311 19.8852 27.1191C19.2685 26.707 18.7879 26.1213 18.504 25.4361C18.2202 24.7508 18.1459 23.9968 18.2906 23.2693C18.4353 22.5419 18.7925 21.8737 19.317 21.3492C19.8414 20.8247 20.5096 20.4676 21.2371 20.3229C21.9646 20.1782 22.7186 20.2524 23.4038 20.5363C24.0891 20.8201 24.6748 21.3008 25.0868 21.9175C25.4989 22.5342 25.7189 23.2592 25.7189 24.0009C25.7189 24.9955 25.3238 25.9494 24.6205 26.6527C23.9172 27.356 22.9633 27.7511 21.9687 27.7511Z" fill="#007CC3"/>
<path d="M36.2193 24.0009C48.1222 13.5605 44.1696 6.54776 29.094 11.6705C28.8372 10.3494 28.5117 9.04255 28.119 7.7553C28.7013 7.35605 29.1242 6.76419 29.3132 6.08387C29.5022 5.40355 29.4452 4.67837 29.1522 4.03595C28.8592 3.39352 28.349 2.87502 27.7114 2.57168C27.0738 2.26835 26.3497 2.19962 25.6664 2.37759C24.5413 0.802532 23.3038 0 21.9687 0C18.9686 0 16.306 4.35017 14.8509 11.6705C-0.149638 6.57776 -4.2448 13.5005 7.71817 24.0009C6.70438 24.8843 5.73562 25.818 4.81556 26.7985C4.37189 26.5761 3.87996 26.4672 3.38385 26.4816C2.88775 26.496 2.40297 26.6332 1.97294 26.8811C1.57417 27.1133 1.23435 27.4344 0.979918 27.8194C0.725485 28.2044 0.563296 28.6429 0.505967 29.1008C0.448639 29.5587 0.497716 30.0237 0.649382 30.4595C0.801048 30.8954 1.05121 31.2903 1.38042 31.6137C0.59289 33.3763 0.517887 34.8539 1.17791 36.0014C3.24799 39.594 10.9283 37.6665 14.8509 36.3314C17.9486 51.932 25.9964 51.872 29.1015 36.3314C33.8642 37.9515 32.7766 36.9389 33.0767 38.049C33.2494 38.6845 33.6264 39.2456 34.1496 39.6456C34.6729 40.0456 35.3132 40.2623 35.9718 40.2623C36.6304 40.2623 37.2707 40.0456 37.7939 39.6456C38.3171 39.2456 38.6942 38.6845 38.8669 38.049C41.2445 37.8165 42.3095 36.8489 42.7745 36.0389C44.2671 33.3763 41.822 28.9211 36.2193 24.0009ZM41.4695 12.7505C42.5645 14.6481 39.9694 18.7507 35.0717 23.0184C33.4713 21.7009 31.804 20.4667 30.0765 19.3208C29.9478 17.2574 29.7124 15.2021 29.3715 13.163C35.5368 11.0329 40.3669 10.8529 41.4695 12.7505ZM27.969 34.3138C26.5664 33.7888 25.1339 33.1813 23.6863 32.4913C25.5539 31.5012 26.7689 30.7512 28.4865 29.6937C28.3515 31.2912 28.164 32.8363 27.924 34.3138H27.969ZM16.0585 34.3138C15.8185 32.8138 15.631 31.3137 15.496 29.6937C17.1685 30.7512 18.3911 31.5012 20.2962 32.4913C18.8486 33.1813 17.416 33.7888 16.0135 34.3138H16.0585ZM16.0585 13.688C17.4611 14.2131 18.8936 14.8206 20.3412 15.5106C18.3836 16.5006 17.1685 17.2507 15.451 18.3082C15.586 16.7107 15.7735 15.1656 16.0135 13.688H16.0585ZM13.8084 26.806C12.4884 25.891 11.2383 24.956 10.0583 24.0009C11.2233 23.0459 12.4734 22.1109 13.8084 21.1958C13.7184 23.3034 13.7184 24.6985 13.7784 26.806H13.8084ZM15.361 27.8411C15.211 25.2832 15.211 22.7187 15.361 20.1608C17.4895 18.762 19.6957 17.4849 21.9687 16.3356C24.2515 17.4848 26.4676 18.7618 28.6065 20.1608C28.7565 22.7187 28.7565 25.2832 28.6065 27.8411C26.4682 29.2409 24.252 30.518 21.9687 31.6662C19.6859 30.5171 17.4698 29.24 15.331 27.8411H15.361ZM27.924 13.688C28.164 15.1881 28.3515 16.6882 28.4865 18.3082C26.7689 17.2507 25.5464 16.5006 23.6413 15.5106C25.0888 14.8206 26.5214 14.2506 27.924 13.688ZM30.174 21.1883C31.4941 22.1034 32.7441 23.0384 33.9242 23.9934C32.7641 24.9485 31.5141 25.8835 30.174 26.7985C30.219 24.6985 30.219 23.3034 30.159 21.1958L30.174 21.1883ZM27.969 5.25021C27.969 5.54689 27.881 5.83691 27.7162 6.08359C27.5513 6.33028 27.317 6.52254 27.0429 6.63608C26.7688 6.74961 26.4672 6.77932 26.1763 6.72144C25.8853 6.66356 25.618 6.52069 25.4082 6.31091C25.1984 6.10112 25.0555 5.83384 24.9977 5.54285C24.9398 5.25187 24.9695 4.95026 25.083 4.67616C25.1966 4.40206 25.3888 4.16778 25.6355 4.00295C25.8822 3.83812 26.1722 3.75015 26.4689 3.75015C26.8667 3.75015 27.2483 3.90819 27.5296 4.1895C27.8109 4.47082 27.969 4.85236 27.969 5.25021ZM24.3538 3.12762C23.9182 3.55938 23.6255 4.11427 23.5149 4.71752C23.4044 5.32078 23.4813 5.94342 23.7355 6.50159C23.9897 7.05975 24.4088 7.52661 24.9364 7.83928C25.464 8.15195 26.0748 8.2954 26.6864 8.25032C27.0808 9.54979 27.4062 10.8692 27.6614 12.203C25.7218 12.9193 23.8216 13.7379 21.9687 14.6556C20.1157 13.7316 18.2155 12.9055 16.276 12.1805C17.4686 6.00023 20.6037 -1.95008 24.3538 3.12762ZM2.46796 12.7505C3.55551 10.8529 8.38569 11.0329 14.5659 13.163C14.225 15.2021 13.9897 17.2574 13.8609 19.3208C12.1335 20.4667 10.4662 21.7009 8.86571 23.0184C3.96802 18.7507 1.38792 14.6481 2.46796 12.7505ZM2.01795 29.0936C2.07775 28.8535 2.19604 28.6319 2.36227 28.4486C2.52849 28.2652 2.73749 28.1259 2.97064 28.0429C3.20379 27.9599 3.45384 27.936 3.69851 27.9731C3.94318 28.0102 4.17487 28.1072 4.37292 28.2556C4.57098 28.404 4.72925 28.5991 4.83363 28.8234C4.93801 29.0478 4.98526 29.2945 4.97116 29.5416C4.95707 29.7887 4.88206 30.0284 4.75284 30.2395C4.62361 30.4505 4.44418 30.6263 4.23053 30.7512C3.97604 30.8954 3.68494 30.9621 3.39305 30.943C3.10117 30.9239 2.82123 30.8198 2.58771 30.6437C2.35418 30.4676 2.17724 30.227 2.07868 29.9516C1.98011 29.6762 1.96422 29.378 2.03295 29.0936H2.01795ZM2.67797 32.3713C3.26771 32.5269 3.89089 32.4992 4.46444 32.2917C5.03799 32.0841 5.53467 31.7067 5.88827 31.2098C6.24186 30.7128 6.43557 30.1198 6.44358 29.5099C6.45159 28.9 6.27352 28.3022 5.9331 27.7961C6.85973 26.8069 7.83867 25.868 8.86571 24.9835C10.4662 26.301 12.1335 27.5352 13.8609 28.6811C13.9897 30.7445 14.225 32.7998 14.5659 34.8389C8.6107 36.8939 0.217876 38.169 2.69297 32.3713H2.67797ZM21.9687 46.5018C19.7786 46.5018 17.5211 42.2342 16.276 35.8214C18.2161 35.0978 20.1163 34.2716 21.9687 33.3463C23.8218 34.2702 25.7219 35.0964 27.6614 35.8214C26.4164 42.2342 24.1588 46.5018 21.9687 46.5018ZM37.2543 38.0265C37.0807 38.3269 36.8083 38.5578 36.4835 38.6798C36.1587 38.8019 35.8017 38.8077 35.4731 38.6961C35.1446 38.5844 34.8649 38.3624 34.6817 38.0677C34.4985 37.7731 34.4232 37.424 34.4684 37.08C34.5137 36.736 34.6768 36.4184 34.93 36.1811C35.1832 35.9439 35.5108 35.8017 35.857 35.7789C36.2032 35.7561 36.5466 35.854 36.8287 36.0559C37.1109 36.2579 37.3143 36.5514 37.4043 36.8864C37.4555 37.077 37.4686 37.2758 37.4429 37.4714C37.4172 37.667 37.3531 37.8557 37.2543 38.0265ZM38.8594 36.5264C38.6997 35.9366 38.3636 35.4096 37.8962 35.0159C37.4288 34.6222 36.8523 34.3807 36.2438 34.3236C35.6354 34.2665 35.0241 34.3966 34.4916 34.6964C33.9591 34.9963 33.5308 35.4516 33.2642 36.0014C31.9425 35.6904 30.6381 35.3099 29.3565 34.8614C29.6974 32.8223 29.9328 30.767 30.0615 28.7036C31.789 27.5577 33.4563 26.3235 35.0567 25.006C39.8269 29.1311 45.1221 35.7989 38.8594 36.5114V36.5264Z" fill="#313131"/>
</svg>
