<svg width="48" height="42" viewBox="0 0 48 42" fill="none" xmlns="http://www.w3.org/2000/svg">
<path d="M47.25 0H0.75C0.551088 0 0.360322 0.0819522 0.21967 0.227828C0.0790176 0.373703 0 0.571553 0 0.777852L0 38.1147C0 38.321 0.0790176 38.5189 0.21967 38.6648C0.360322 38.8106 0.551088 38.8926 0.75 38.8926H21V41.2262C21.0007 41.3662 21.0379 41.5035 21.1075 41.6235C21.1772 41.7435 21.2769 41.8417 21.3959 41.9079C21.515 41.974 21.6491 42.0056 21.784 41.9992C21.9189 41.9928 22.0497 41.9488 22.1625 41.8718L24 40.6039C25.875 41.9029 26.0925 42.1596 26.6025 41.9107C27.1125 41.6618 27 41.1406 27 38.8926H47.25C47.4489 38.8926 47.6397 38.8106 47.7803 38.6648C47.921 38.5189 48 38.321 48 38.1147V0.777852C48 0.571553 47.921 0.373703 47.7803 0.227828C47.6397 0.0819522 47.4489 0 47.25 0ZM20.25 30.3362C20.25 29.567 20.4699 28.8151 20.882 28.1755C21.294 27.5359 21.8797 27.0374 22.5649 26.743C23.2502 26.4487 24.0042 26.3716 24.7316 26.5217C25.459 26.6718 26.1272 27.0422 26.6516 27.5861C27.1761 28.13 27.5332 28.823 27.6779 29.5775C27.8226 30.3319 27.7484 31.1139 27.4645 31.8246C27.1807 32.5353 26.7001 33.1427 26.0834 33.57C25.4667 33.9974 24.7417 34.2255 24 34.2255C23.0054 34.2255 22.0516 33.8157 21.3484 33.0863C20.6451 32.357 20.25 31.3677 20.25 30.3362ZM24 24.8913C22.9577 24.8926 21.9393 25.2158 21.0747 25.8196C20.21 26.4233 19.5383 27.2803 19.1449 28.2815C18.7516 29.2826 18.6544 30.3825 18.8659 31.441C19.0774 32.4996 19.588 33.4689 20.3325 34.2255H7.425C7.27802 33.4781 6.92237 32.792 6.40229 32.2526C5.88221 31.7132 5.22067 31.3443 4.5 31.1919V7.70073C5.22067 7.5483 5.88221 7.17943 6.40229 6.64004C6.92237 6.10065 7.27802 5.41454 7.425 4.66711H40.575C40.722 5.41454 41.0776 6.10065 41.5977 6.64004C42.1178 7.17943 42.7793 7.5483 43.5 7.70073V31.1919C42.7793 31.3443 42.1178 31.7132 41.5977 32.2526C41.0776 32.792 40.722 33.4781 40.575 34.2255H27.6675C28.412 33.4689 28.9226 32.4996 29.1341 31.441C29.3456 30.3825 29.2484 29.2826 28.8551 28.2815C28.4617 27.2803 27.79 26.4233 26.9253 25.8196C26.0607 25.2158 25.0423 24.8926 24 24.8913V24.8913ZM25.5 39.7716C23.7825 38.5815 24.2025 38.597 22.5 39.7716V35.5556C23.4787 35.8582 24.5213 35.8582 25.5 35.5556V39.7716ZM46.5 37.3369H27V35.7812H41.25C41.4489 35.7812 41.6397 35.6992 41.7803 35.5534C41.921 35.4075 42 35.2096 42 35.0033C42 34.3844 42.2371 33.7909 42.659 33.3533C43.081 32.9156 43.6533 32.6698 44.25 32.6698C44.4489 32.6698 44.6397 32.5878 44.7803 32.442C44.921 32.2961 45 32.0982 45 31.8919V7.00067C45 6.79437 44.921 6.59652 44.7803 6.45064C44.6397 6.30477 44.4489 6.22282 44.25 6.22282C43.6533 6.22282 43.081 5.97696 42.659 5.53933C42.2371 5.10171 42 4.50816 42 3.88926C42 3.68296 41.921 3.48511 41.7803 3.33924C41.6397 3.19336 41.4489 3.11141 41.25 3.11141H6.75C6.55109 3.11141 6.36032 3.19336 6.21967 3.33924C6.07902 3.48511 6 3.68296 6 3.88926C6 4.50816 5.76295 5.10171 5.34099 5.53933C4.91903 5.97696 4.34674 6.22282 3.75 6.22282C3.55109 6.22282 3.36032 6.30477 3.21967 6.45064C3.07902 6.59652 3 6.79437 3 7.00067V31.8919C3 32.0982 3.07902 32.2961 3.21967 32.442C3.36032 32.5878 3.55109 32.6698 3.75 32.6698C4.34674 32.6698 4.91903 32.9156 5.34099 33.3533C5.76295 33.7909 6 34.3844 6 35.0033C6 35.2096 6.07902 35.4075 6.21967 35.5534C6.36032 35.6992 6.55109 35.7812 6.75 35.7812H21V37.3369H1.5V1.5557H46.5V37.3369Z" fill="#313131"/>
<path d="M36.75 7.77856H11.25C11.0511 7.77856 10.8603 7.86052 10.7197 8.00639C10.579 8.15227 10.5 8.35012 10.5 8.55642V13.2235C10.5 13.4298 10.579 13.6277 10.7197 13.7736C10.8603 13.9194 11.0511 14.0014 11.25 14.0014H36.75C36.9489 14.0014 37.1397 13.9194 37.2803 13.7736C37.421 13.6277 37.5 13.4298 37.5 13.2235V8.55642C37.5 8.35012 37.421 8.15227 37.2803 8.00639C37.1397 7.86052 36.9489 7.77856 36.75 7.77856ZM36 12.4457H12V9.33427H36V12.4457Z" fill="#007CC3"/>
<path d="M36.75 17.1125H11.25C11.0511 17.1125 10.8603 17.1945 10.7197 17.3404C10.579 17.4863 10.5 17.6841 10.5 17.8904C10.5 18.0967 10.579 18.2946 10.7197 18.4404C10.8603 18.5863 11.0511 18.6683 11.25 18.6683H36.75C36.9489 18.6683 37.1397 18.5863 37.2803 18.4404C37.421 18.2946 37.5 18.0967 37.5 17.8904C37.5 17.6841 37.421 17.4863 37.2803 17.3404C37.1397 17.1945 36.9489 17.1125 36.75 17.1125Z" fill="#007CC3"/>
<path d="M36.75 21.002H11.25C11.0511 21.002 10.8603 21.0839 10.7197 21.2298C10.579 21.3757 10.5 21.5735 10.5 21.7798C10.5 21.9861 10.579 22.184 10.7197 22.3298C10.8603 22.4757 11.0511 22.5577 11.25 22.5577H36.75C36.9489 22.5577 37.1397 22.4757 37.2803 22.3298C37.421 22.184 37.5 21.9861 37.5 21.7798C37.5 21.5735 37.421 21.3757 37.2803 21.2298C37.1397 21.0839 36.9489 21.002 36.75 21.002Z" fill="#007CC3"/>
<path d="M15.75 28.7805H11.25C11.0511 28.7805 10.8603 28.8625 10.7197 29.0083C10.579 29.1542 10.5 29.3521 10.5 29.5584C10.5 29.7647 10.579 29.9625 10.7197 30.1084C10.8603 30.2543 11.0511 30.3362 11.25 30.3362H15.75C15.9489 30.3362 16.1397 30.2543 16.2803 30.1084C16.421 29.9625 16.5 29.7647 16.5 29.5584C16.5 29.3521 16.421 29.1542 16.2803 29.0083C16.1397 28.8625 15.9489 28.7805 15.75 28.7805Z" fill="#007CC3"/>
<path d="M36.75 28.7805H32.25C32.0511 28.7805 31.8603 28.8625 31.7197 29.0083C31.579 29.1542 31.5 29.3521 31.5 29.5584C31.5 29.7647 31.579 29.9625 31.7197 30.1084C31.8603 30.2543 32.0511 30.3362 32.25 30.3362H36.75C36.9489 30.3362 37.1397 30.2543 37.2803 30.1084C37.421 29.9625 37.5 29.7647 37.5 29.5584C37.5 29.3521 37.421 29.1542 37.2803 29.0083C37.1397 28.8625 36.9489 28.7805 36.75 28.7805Z" fill="#007CC3"/>
</svg>
