<svg width="48" height="48" viewBox="0 0 48 48" fill="none" xmlns="http://www.w3.org/2000/svg">
<path d="M36.7494 0H3.74994C3.15321 0 2.58092 0.237053 2.15897 0.65901C1.73702 1.08097 1.49998 1.65326 1.49998 2.25V5.25H0.749988C0.551079 5.25 0.360316 5.32902 0.219666 5.46967C0.0790163 5.61032 0 5.80109 0 6C0 6.19891 0.0790163 6.38968 0.219666 6.53033C0.360316 6.67098 0.551079 6.75 0.749988 6.75H1.49998V9.75H0.749988C0.551079 9.75 0.360316 9.82902 0.219666 9.96967C0.0790163 10.1103 0 10.3011 0 10.5C0 10.6989 0.0790163 10.8897 0.219666 11.0303C0.360316 11.171 0.551079 11.25 0.749988 11.25H1.49998V14.25H0.749988C0.551079 14.25 0.360316 14.329 0.219666 14.4697C0.0790163 14.6103 0 14.8011 0 15C0 15.1989 0.0790163 15.3897 0.219666 15.5303C0.360316 15.671 0.551079 15.75 0.749988 15.75H1.49998V18.75H0.749988C0.551079 18.75 0.360316 18.829 0.219666 18.9697C0.0790163 19.1103 0 19.3011 0 19.5C0 19.6989 0.0790163 19.8897 0.219666 20.0303C0.360316 20.171 0.551079 20.25 0.749988 20.25H1.49998V23.25H0.749988C0.551079 23.25 0.360316 23.329 0.219666 23.4697C0.0790163 23.6103 0 23.8011 0 24C0 24.1989 0.0790163 24.3897 0.219666 24.5303C0.360316 24.671 0.551079 24.75 0.749988 24.75H1.49998V27.75H0.749988C0.551079 27.75 0.360316 27.829 0.219666 27.9697C0.0790163 28.1103 0 28.3011 0 28.5C0 28.6989 0.0790163 28.8897 0.219666 29.0303C0.360316 29.171 0.551079 29.25 0.749988 29.25H1.49998V32.25H0.749988C0.551079 32.25 0.360316 32.329 0.219666 32.4697C0.0790163 32.6103 0 32.8011 0 33C0 33.1989 0.0790163 33.3897 0.219666 33.5303C0.360316 33.671 0.551079 33.75 0.749988 33.75H1.49998V36.75H0.749988C0.551079 36.75 0.360316 36.829 0.219666 36.9697C0.0790163 37.1103 0 37.3011 0 37.5C0 37.6989 0.0790163 37.8897 0.219666 38.0303C0.360316 38.171 0.551079 38.25 0.749988 38.25H1.49998V41.25H0.749988C0.551079 41.25 0.360316 41.329 0.219666 41.4697C0.0790163 41.6103 0 41.8011 0 42C0 42.1989 0.0790163 42.3897 0.219666 42.5303C0.360316 42.671 0.551079 42.75 0.749988 42.75H1.49998V45.75C1.49998 46.3467 1.73702 46.919 2.15897 47.341C2.58092 47.7629 3.15321 48 3.74994 48H36.7494C37.3461 48 37.9184 47.7629 38.3404 47.341C38.7623 46.919 38.9994 46.3467 38.9994 45.75V2.25C38.9994 1.65326 38.7623 1.08097 38.3404 0.65901C37.9184 0.237053 37.3461 0 36.7494 0V0ZM3.74994 46.5C3.55103 46.5 3.36027 46.421 3.21962 46.2803C3.07897 46.1397 2.99995 45.9489 2.99995 45.75V42.75H4.49993C4.69883 42.75 4.8896 42.671 5.03025 42.5303C5.1709 42.3897 5.24991 42.1989 5.24991 42C5.24991 41.8011 5.1709 41.6103 5.03025 41.4697C4.8896 41.329 4.69883 41.25 4.49993 41.25H2.99995V38.25H4.49993C4.69883 38.25 4.8896 38.171 5.03025 38.0303C5.1709 37.8897 5.24991 37.6989 5.24991 37.5C5.24991 37.3011 5.1709 37.1103 5.03025 36.9697C4.8896 36.829 4.69883 36.75 4.49993 36.75H2.99995V33.75H4.49993C4.69883 33.75 4.8896 33.671 5.03025 33.5303C5.1709 33.3897 5.24991 33.1989 5.24991 33C5.24991 32.8011 5.1709 32.6103 5.03025 32.4697C4.8896 32.329 4.69883 32.25 4.49993 32.25H2.99995V29.25H4.49993C4.69883 29.25 4.8896 29.171 5.03025 29.0303C5.1709 28.8897 5.24991 28.6989 5.24991 28.5C5.24991 28.3011 5.1709 28.1103 5.03025 27.9697C4.8896 27.829 4.69883 27.75 4.49993 27.75H2.99995V24.75H4.49993C4.69883 24.75 4.8896 24.671 5.03025 24.5303C5.1709 24.3897 5.24991 24.1989 5.24991 24C5.24991 23.8011 5.1709 23.6103 5.03025 23.4697C4.8896 23.329 4.69883 23.25 4.49993 23.25H2.99995V20.25H4.49993C4.69883 20.25 4.8896 20.171 5.03025 20.0303C5.1709 19.8897 5.24991 19.6989 5.24991 19.5C5.24991 19.3011 5.1709 19.1103 5.03025 18.9697C4.8896 18.829 4.69883 18.75 4.49993 18.75H2.99995V15.75H4.49993C4.69883 15.75 4.8896 15.671 5.03025 15.5303C5.1709 15.3897 5.24991 15.1989 5.24991 15C5.24991 14.8011 5.1709 14.6103 5.03025 14.4697C4.8896 14.329 4.69883 14.25 4.49993 14.25H2.99995V11.25H4.49993C4.69883 11.25 4.8896 11.171 5.03025 11.0303C5.1709 10.8897 5.24991 10.6989 5.24991 10.5C5.24991 10.3011 5.1709 10.1103 5.03025 9.96967C4.8896 9.82902 4.69883 9.75 4.49993 9.75H2.99995V6.75H4.49993C4.69883 6.75 4.8896 6.67098 5.03025 6.53033C5.1709 6.38968 5.24991 6.19891 5.24991 6C5.24991 5.80109 5.1709 5.61032 5.03025 5.46967C4.8896 5.32902 4.69883 5.25 4.49993 5.25H2.99995V2.25C2.99995 2.05109 3.07897 1.86032 3.21962 1.71967C3.36027 1.57902 3.55103 1.5 3.74994 1.5H5.9999V46.5H3.74994ZM37.4994 45.75C37.4994 45.9489 37.4204 46.1397 37.2797 46.2803C37.1391 46.421 36.9483 46.5 36.7494 46.5H7.49988V1.5H36.7494C36.9483 1.5 37.1391 1.57902 37.2797 1.71967C37.4204 1.86032 37.4994 2.05109 37.4994 2.25V45.75Z" fill="#313131"/>
<path d="M33.7494 5.25H11.2498C11.0509 5.25 10.8601 5.32902 10.7195 5.46967C10.5788 5.61032 10.4998 5.80109 10.4998 6V19.5C10.4998 19.6989 10.5788 19.8897 10.7195 20.0303C10.8601 20.171 11.0509 20.25 11.2498 20.25H33.7494C33.9483 20.25 34.1391 20.171 34.2798 20.0303C34.4204 19.8897 34.4994 19.6989 34.4994 19.5V6C34.4994 5.80109 34.4204 5.61032 34.2798 5.46967C34.1391 5.32902 33.9483 5.25 33.7494 5.25ZM32.9994 18.75H11.9998V6.75H32.9994V18.75Z" fill="#007CC3"/>
<path d="M31.4994 27.75H13.4997C13.3008 27.75 13.1101 27.829 12.9694 27.9697C12.8288 28.1103 12.7498 28.3011 12.7498 28.5C12.7498 28.6989 12.8288 28.8897 12.9694 29.0303C13.1101 29.171 13.3008 29.25 13.4997 29.25H31.4994C31.6984 29.25 31.8891 29.171 32.0298 29.0303C32.1704 28.8897 32.2494 28.6989 32.2494 28.5C32.2494 28.3011 32.1704 28.1103 32.0298 27.9697C31.8891 27.829 31.6984 27.75 31.4994 27.75Z" fill="#007CC3"/>
<path d="M31.4994 32.25H13.4997C13.3008 32.25 13.1101 32.329 12.9694 32.4697C12.8288 32.6103 12.7498 32.8011 12.7498 33C12.7498 33.1989 12.8288 33.3897 12.9694 33.5303C13.1101 33.671 13.3008 33.75 13.4997 33.75H31.4994C31.6984 33.75 31.8891 33.671 32.0298 33.5303C32.1704 33.3897 32.2494 33.1989 32.2494 33C32.2494 32.8011 32.1704 32.6103 32.0298 32.4697C31.8891 32.329 31.6984 32.25 31.4994 32.25Z" fill="#007CC3"/>
<path d="M45.7492 1.5H44.2492C43.6525 1.5 43.0802 1.73705 42.6583 2.15901C42.2363 2.58097 41.9993 3.15326 41.9993 3.75V41.25C41.9993 41.505 41.8868 41.205 44.3317 46.0875C44.3947 46.2103 44.4903 46.3134 44.6081 46.3854C44.7258 46.4574 44.8612 46.4955 44.9992 46.4955C45.1373 46.4955 45.2726 46.4574 45.3904 46.3854C45.5082 46.3134 45.6038 46.2103 45.6667 46.0875C48.1117 41.25 47.9992 41.505 47.9992 41.25V3.75C47.9992 3.15326 47.7621 2.58097 47.3402 2.15901C46.9182 1.73705 46.3459 1.5 45.7492 1.5ZM44.3542 42.7875L43.6867 41.445C44.5423 41.1841 45.4562 41.1841 46.3117 41.445L45.6442 42.7875C45.2154 42.7425 44.783 42.7425 44.3542 42.7875ZM46.4992 9.75H43.4992V8.25H46.4992V9.75ZM43.4992 39.9525V11.25H46.4992V39.9525C45.5153 39.6985 44.4831 39.6985 43.4992 39.9525ZM43.4992 3.75C43.4992 3.55109 43.5783 3.36032 43.7189 3.21967C43.8596 3.07902 44.0503 3 44.2492 3H45.7492C45.9481 3 46.1389 3.07902 46.2795 3.21967C46.4202 3.36032 46.4992 3.55109 46.4992 3.75V6.75H43.4992V3.75Z" fill="#313131"/>
</svg>
